<svg width="378" height="12" viewBox="0 0 378 12" fill="none" xmlns="http://www.w3.org/2000/svg">
<mask id="mask0_1_245" style="mask-type:alpha" maskUnits="userSpaceOnUse" x="0" y="0" width="378" height="12">
<rect x="0.449219" width="377.143" height="12" fill="#C4C4C4"/>
</mask>
<g mask="url(#mask0_1_245)">
<path d="M57.0971 -2.53796L58.0189 -2.69614L56.2252 -2.92292L57.085 -3.08892C57.9472 -3.0874 59.0643 -2.83867 59.6722 -2.97083C59.7465 -3.09879 58.8076 -3.13986 58.568 -3.24181C58.3561 -3.34631 58.1831 -3.45013 58.0511 -3.55202C58.5206 -3.55092 59.0368 -3.52628 59.5691 -3.47953C60.285 -3.40318 60.9872 -3.36607 61.5982 -3.37229C62.8476 -3.35167 64.0547 -3.37224 65.4131 -3.36771L64.9612 -3.67567L66.7119 -3.60362C66.8974 -3.58016 67.1186 -3.61789 67.3009 -3.58887C68.8181 -3.34329 69.4601 -3.47711 70.1885 -3.58807C70.3378 -3.61678 70.5177 -3.63822 70.7234 -3.65182C72.7474 -3.593 74.5725 -3.24878 76.3952 -3.07207C76.7383 -3.02695 77.0673 -2.96904 77.3591 -2.90243C77.993 -2.77295 78.6983 -2.66724 79.4102 -2.59497C80.1221 -2.52269 80.818 -2.48616 81.4343 -2.48871C82.7971 -2.49157 84.3367 -2.40593 85.9042 -2.24008C86.3704 -2.18545 86.8368 -2.14941 87.2738 -2.13426C87.7109 -2.11911 88.1089 -2.12517 88.4424 -2.15207L89.5022 -1.97627C89.9616 -2.04761 90.5441 -2.08675 91.2144 -2.09131C91.8847 -2.09588 92.6288 -2.06578 93.4015 -2.00283C94.2249 -1.93455 95.0613 -1.88853 95.9157 -1.81634C97.6805 -1.67832 99.3982 -1.59392 101.015 -1.56575C103.423 -1.48226 105.776 -1.4177 108.205 -1.31361C109.725 -1.26336 111.206 -1.23573 112.638 -1.23085C114.355 -1.21119 116.211 -1.11605 118.119 -0.950019C118.028 -0.794239 117.192 -0.840261 116.631 -0.845532C114.82 -0.871425 112.967 -0.938519 111.104 -0.988921C110.265 -1.0086 109.448 -1.01605 108.66 -1.01122C107.342 -1.01768 105.953 -1.05919 104.516 -1.13504C102.246 -1.2185 100.049 -1.25861 97.9467 -1.25498C97.7819 -1.24881 97.6309 -1.23788 97.4962 -1.22236C97.4681 -1.20893 97.4626 -1.19198 97.4801 -1.17315C97.4976 -1.15433 97.5377 -1.13425 97.5964 -1.11484C97.6551 -1.09543 97.7304 -1.07735 97.8153 -1.06231C97.9002 -1.04728 97.9917 -1.03579 98.0811 -1.02897C98.9161 -0.9234 99.8129 -0.810014 100.6 -0.794062C100.631 -0.79287 100.663 -0.790149 100.695 -0.786092C100.727 -0.782034 100.758 -0.776743 100.786 -0.770603C102.549 -0.54773 103.998 -0.585446 105.371 -0.549185C107.651 -0.451184 109.849 -0.405408 111.931 -0.412548C112.246 -0.412063 112.586 -0.399323 112.938 -0.37479C115.119 -0.27534 117.159 -0.264217 118.961 -0.341924C119.702 -0.36161 120.392 -0.405805 121.189 -0.406544C121.68 -0.409587 122.108 -0.437789 122.446 -0.489463C122.784 -0.541139 123.025 -0.615218 123.156 -0.707246C123.493 -0.658794 123.834 -0.615613 124.177 -0.578219C124.382 -0.556839 124.578 -0.551159 124.726 -0.562348C124.874 -0.573536 124.963 -0.600756 124.975 -0.638501C125.037 -0.744208 124.57 -0.797294 124.164 -0.842561C124.409 -0.865232 124.684 -0.878568 124.984 -0.882249C126.673 -0.906405 128.484 -0.877895 130.379 -0.797352C131.85 -0.700942 133.024 -0.779413 134.572 -0.643457C134.757 -0.619996 134.91 -0.65443 135.081 -0.662697C135.526 -0.706236 136.081 -0.716022 136.697 -0.6912C137.313 -0.666377 137.972 -0.607696 138.617 -0.520244C139.419 -0.759166 141.153 -0.486218 142.433 -0.461689C142.828 -0.340185 142.375 -0.361546 142.356 -0.328165C142.336 -0.294784 142.356 -0.328171 142.201 -0.347722C140.923 -0.175651 139.171 -0.138131 137.193 -0.240434C136.827 -0.24001 136.478 -0.232171 136.15 -0.216993C135.653 -0.19551 135.093 -0.197656 134.494 -0.223335C133.839 -0.242193 133.238 -0.233237 132.719 -0.196896C132.421 -0.197488 132.168 -0.179284 131.985 -0.143957C131.802 -0.108631 131.695 -0.057329 131.672 0.00518058C131.872 0.0533702 132.093 0.0974644 132.327 0.135712C133.549 0.28673 134.768 0.34924 135.744 0.310943C137.442 0.244959 139.463 0.309349 141.269 0.286824C142.489 0.277698 143.788 0.303691 145.141 0.364319C145.141 0.364319 145.105 0.425518 145.102 0.431081C145.262 0.457579 145.43 0.478839 145.597 0.493643C145.597 0.493643 145.597 0.493644 145.613 0.465826C145.539 0.439112 145.438 0.413981 145.323 0.393343L144.921 0.34251C145.194 0.329284 145.449 0.289898 145.734 0.313961C146.334 0.358667 146.908 0.377542 147.42 0.369462C147.933 0.361382 148.373 0.326508 148.716 0.266937C149.323 0.190591 150.078 0.155871 150.933 0.165021C151.588 0.156686 152.219 0.138772 152.823 0.111368C152.823 0.111368 152.862 0.0446113 153.148 0.00912902C152.877 -0.0346349 152.594 -0.0703688 152.313 -0.0964384C151.089 -0.161567 149.862 -0.221133 148.66 -0.265661C148.217 -0.270471 147.801 -0.26301 147.419 -0.243425C146.361 -0.220505 145.172 -0.253034 143.922 -0.339114C143.922 -0.339114 143.675 -0.370394 143.551 -0.386034C143.902 -0.532787 145.111 -0.385869 145.601 -0.485256C145.898 -0.483447 146.422 -0.470948 146.404 -0.497113C146.363 -0.532026 146.359 -0.564463 146.39 -0.592092C146.421 -0.61972 146.488 -0.641861 146.586 -0.656921C146.683 -0.671983 146.809 -0.679597 146.954 -0.67921C147.1 -0.678823 147.26 -0.670443 147.425 -0.654681C148.802 -0.569418 150.098 -0.545706 151.235 -0.585001C151.667 -0.584244 152.15 -0.55897 152.578 -0.55265C152.84 -0.545036 153.079 -0.549269 153.282 -0.565121C154.316 -0.681865 155.707 -0.690389 157.247 -0.589417C157.99 -0.553116 158.686 -0.548261 159.296 -0.575102C159.731 -0.579906 159.915 -0.496907 160.224 -0.457806L161.537 -0.375383L159.851 -0.272102C160.211 -0.0354179 160.498 0.0426259 161.087 0.0573711C161.946 0.0796381 162.783 0.089699 163.592 0.0874874C164.191 0.0855419 164.685 0.0345704 165.496 0.125104C165.639 0.139871 165.777 0.144649 165.886 0.138641C166.835 0.0582677 167.978 0.0398216 169.237 0.084562C169.889 -0.0659463 170.999 0.0803876 172.026 0.198292C172.357 0.0849192 171.757 0.0328771 171.399 -0.0362977C172.258 -0.0292174 173.123 -0.0332602 174.01 -0.0167058C174.277 -0.0227313 174.581 -0.0124219 174.9 0.0134112C175.22 0.0392442 175.544 0.079893 175.849 0.132182C175.997 0.165968 176.176 0.191398 176.349 0.203188C176.521 0.214977 176.674 0.212226 176.775 0.195506C177.235 0.146193 177.972 0.191612 178.352 0.108314C178.487 0.0891578 178.681 0.0864834 178.898 0.100759C179.114 0.115034 179.34 0.145337 179.535 0.186234C179.322 0.198992 179.132 0.219085 178.969 0.246071C178.387 0.333724 178.601 0.480188 179.341 0.69312C180.476 0.681409 181.636 0.684734 182.688 0.644603C183.275 0.608579 183.994 0.619841 184.764 0.677123C185.534 0.734408 186.325 0.835441 187.048 0.968864C187.31 1.02017 187.608 1.0557 187.883 1.06841C188.159 1.08112 188.392 1.07007 188.535 1.03745C188.625 0.999728 188.652 0.951985 188.616 0.898361L187.874 0.804525C187.874 0.804525 187.903 0.754453 187.909 0.743325L188.976 0.734913C189.541 0.734621 190.13 0.74937 190.663 0.745168C191.447 0.717224 192.342 0.7328 193.293 0.790928C194.169 0.850533 195.031 0.895588 195.87 0.925694C196.682 0.956682 197.27 0.857894 198.043 0.842118C198.627 0.830227 199.27 0.842935 199.947 0.879746C201.115 0.945036 202.188 0.945157 203.067 0.880097C204.091 1.23062 204.589 1.28761 205.541 1.1929L205.988 1.16584L206.11 1.24102L206.452 1.22449C207.091 1.20976 207.73 1.19504 208.397 1.18979C209.325 1.22232 210.326 1.30984 211.304 1.4438C211.49 1.46726 211.742 1.54697 211.905 1.60937C212.068 1.67178 212.423 1.86004 212.684 1.98259C212.4 2.07206 212.085 2.15761 211.859 2.26046C211.836 2.27803 211.839 2.29898 211.865 2.32163C211.892 2.34428 211.943 2.368 212.014 2.39087C212.085 2.41374 212.173 2.43513 212.272 2.45333C212.372 2.47153 212.479 2.48603 212.585 2.49565C212.793 2.51639 212.998 2.53022 213.192 2.53656C214.148 2.5475 215.063 2.53937 215.929 2.51224C216.245 2.47398 216.677 2.47034 217.158 2.50192C217.639 2.5335 218.14 2.59848 218.583 2.68656C219.715 2.63368 221.031 2.6493 222.44 2.73233C223.93 2.68184 225.73 2.78396 227.122 2.67331C227.089 2.72895 227.233 2.82474 227.433 2.87992C227.75 2.96375 228.109 3.04144 228.495 3.1097L231.438 3.24297C231.548 3.3115 231.686 3.38087 231.849 3.45018C231.961 3.50493 232.156 3.55851 232.392 3.59955C232.629 3.64059 232.888 3.66588 233.116 3.67005C233.702 3.69036 234.193 3.64495 234.891 3.75713C233.816 3.86318 232.365 3.84909 230.798 3.71738C229.326 3.6172 227.909 3.56714 226.602 3.56904C226.171 3.56828 225.603 3.57414 225.468 3.63473C225.169 3.806 224.389 3.77892 223.477 3.74733C222.762 3.71275 222.108 3.71663 221.57 3.75865C221.032 3.80068 220.625 3.87965 220.383 3.98907C220.321 4.09477 220.468 4.185 221.096 4.24651L223.708 4.49316C224.093 4.46145 224.459 4.42391 224.803 4.3807C225.382 4.32331 226.098 4.30756 226.894 4.33467C227.69 4.36178 228.545 4.43103 229.393 4.53701C229.826 4.59175 230.258 4.64649 230.572 4.62048C230.848 4.5906 231.101 4.55483 231.332 4.51343C231.378 4.48568 231.397 4.45375 231.386 4.41885C231.553 4.43508 231.72 4.45617 231.881 4.48141C233.171 4.77585 234.17 4.77075 235.077 4.69438C235.323 4.67168 235.51 4.63559 235.759 4.60733C236.007 4.57906 236.095 4.54238 236.321 4.55306C238.124 4.64962 238.643 4.32709 240.163 4.34004C240.237 4.32745 240.283 4.30861 240.296 4.28527C240.31 4.26194 240.291 4.23486 240.24 4.20652C240.133 4.18093 240.009 4.15893 239.879 4.14253C239.749 4.12613 239.618 4.11587 239.498 4.11268C238.799 4.07129 238.181 4.08398 237.751 4.14859C237.446 4.17499 237.124 4.19602 236.785 4.21157L235.263 3.7445C236.738 3.78732 238.132 3.78704 239.413 3.74367C239.693 3.71931 240.167 3.76127 240.56 3.76925L243.456 3.8129C244.052 3.81652 244.559 3.7433 245.389 3.91398C245.389 3.91398 245.938 3.94151 246.084 3.9182C246.23 3.8949 246.879 3.74995 247.266 3.65553C247.715 3.68245 248.337 3.75509 248.616 3.73074C249.105 3.67092 249.528 3.59423 249.878 3.50205L251.627 3.63364C251.625 3.75054 251.561 3.86052 251.436 3.96189C251.3 4.05966 251.305 4.17702 251.45 4.30438C251.595 4.43173 251.877 4.56546 252.273 4.69465L254 5.37885C254.282 5.42467 254.582 5.45551 254.86 5.46719C255.139 5.47887 255.381 5.47082 255.555 5.44413C256.298 5.3649 257.131 5.30296 257.874 5.22373C258.833 5.34494 258.587 5.54072 259.284 5.71245L261.541 5.99788C261.885 6.26238 262.236 6.51576 261.189 6.6043C260.981 6.61979 261.121 6.72115 260.931 6.76279C261.745 6.96129 262.64 7.02071 263.466 7.14297C263.791 7.2309 264.063 7.32397 264.269 7.4177C264.495 7.55882 264.952 7.70298 265.543 7.81904C266.134 7.9351 266.811 8.01375 267.427 8.03801C268.461 8.11232 269.52 8.22392 270.555 8.36782C270.909 8.41786 271.273 8.45432 271.622 8.47473C271.971 8.49515 272.297 8.49906 272.578 8.48619C273.58 8.46354 274.429 8.38562 275.068 8.25752C275.7 8.14881 276.552 8.09641 277.546 8.10509C279.247 8.32014 279.59 8.64419 280.62 8.9296L278.842 8.9616C278.777 9.07288 278.895 9.21317 278.166 9.2106C277.437 9.20803 277.807 9.3145 278.043 9.42201C278.127 9.4761 278.289 9.53174 278.503 9.5795C278.718 9.62726 278.97 9.66422 279.219 9.68412L280.732 9.82174C281.269 9.87411 281.789 9.89647 282.234 9.88637C282.679 9.87627 283.032 9.8341 283.255 9.76448C283.512 9.69838 283.865 9.65367 284.294 9.63309C284.841 9.57916 285.291 9.49896 285.627 9.39552L287.764 9.54623C287.855 9.44228 288.149 9.3694 288.595 9.3399C289.042 9.31039 289.614 9.32608 290.215 9.38432L291.655 9.47682C293.256 9.57774 293.607 9.54452 294.076 9.25146L292.156 8.72799C292.435 8.59011 292.705 8.46891 292.974 8.34772C292.496 8.17527 291.858 8.01215 291.124 7.87494C290.44 7.72751 289.736 7.58472 289.016 7.44712C288.234 7.30651 287.409 7.18425 286.439 7.02574C286.269 6.97447 286.023 6.88363 285.709 6.79612C285.394 6.71107 285.066 6.6277 284.725 6.54634C284.79 6.43507 284.848 6.33493 284.724 6.20576C285.321 6.24697 285.939 6.31906 286.52 6.41551C287.102 6.51197 287.629 6.62976 288.055 6.75827C288.126 6.78106 288.214 6.80246 288.312 6.82104C288.41 6.83961 288.516 6.85493 288.623 6.86594C289.673 6.9449 290.174 7.10985 290.688 7.31211C291.033 7.4155 291.479 7.50731 291.962 7.57482C292.89 7.69212 293.799 7.8428 294.686 7.97289C294.957 8.01624 295.24 8.05192 295.521 8.07845C296.448 8.16284 297.381 8.28084 298.273 8.42645C298.564 8.46346 298.844 8.51243 299.088 8.56928C299.332 8.62613 299.534 8.68919 299.677 8.75322C299.456 8.82336 299.337 8.9119 299.327 9.0135C299.288 9.08026 299.939 9.21636 300.247 9.31501C300.555 9.41366 299.951 9.36718 299.746 9.3771C298.905 9.39618 298.749 9.43617 299.253 9.65512C299.421 9.72396 299.533 9.79285 299.581 9.85749C299.629 9.92213 299.613 9.98116 299.533 10.0309C299.413 10.2368 299.049 10.4058 298.8 10.6071C299.188 10.7397 299.836 10.8814 299.906 11.0456C299.94 11.082 300.012 11.1206 300.116 11.1586C300.22 11.1965 300.355 11.2329 300.509 11.2651C300.916 11.3346 301.286 11.4177 301.591 11.508C301.895 11.5983 302.126 11.6933 302.265 11.7857C302.311 11.824 302.42 11.8645 302.573 11.8993C302.725 11.934 302.908 11.9604 303.086 11.9731C303.298 11.9887 303.488 11.9867 303.617 11.9674C303.745 11.948 303.802 11.913 303.777 11.8694C303.782 11.7874 303.754 11.702 303.693 11.6139C303.728 11.5527 303.764 11.4915 303.623 11.3901C304.257 11.4271 304.923 11.5012 305.548 11.6045C306.172 11.7077 306.733 11.836 307.167 11.9756C307.648 12.1199 308.091 12.2715 308.624 12.4404C308.514 12.6295 308.514 12.6295 309.648 12.964L315.661 13.1271L316.893 13.3486C318.043 13.5417 318.316 13.5285 319.038 13.4286L319.524 13.3348C320.544 13.4638 321.72 13.6124 322.358 13.3706C322.565 13.5282 322.7 13.5811 322.653 13.6051C322.349 13.8376 321.819 14.0349 321.086 14.1892C320.899 14.2253 320.767 14.2803 320.55 14.3125C319.847 14.4941 319.684 14.7747 320.094 15.097C320.298 15.2396 320.593 15.3856 320.971 15.5303C320.418 15.7312 319.685 15.8976 318.792 16.0252C318.034 16.1238 317.41 16.2559 316.937 16.4177C316.513 16.5809 315.878 16.7035 315.068 16.7786C314.657 16.8105 314.357 16.8735 314.198 16.9613C314.151 17.1989 314.26 17.4533 314.522 17.7188C314.571 17.7996 314.712 17.8869 314.932 17.9738C315.152 18.0607 315.446 18.1449 315.792 18.2197C315.792 18.2197 315.958 18.2766 316.038 18.3106C316.104 18.5983 315.855 18.8519 315.307 19.0543C315.217 19.1117 315.034 19.1532 314.776 19.1742C314.518 19.1953 314.195 19.1951 313.843 19.1738C313.1 19.1395 312.405 19.1353 311.686 19.116C310.911 19.0888 310.229 19.1102 309.71 19.1782C309.192 19.2461 308.856 19.3579 308.74 19.502C308.732 19.5427 308.71 19.5818 308.672 19.6188C308.65 19.6379 308.638 19.6584 308.637 19.68L310.288 20.1516L308.42 20.3393C308.31 20.5285 309.207 20.6419 309.656 20.7823L309.378 20.8607C309.021 20.905 308.539 20.8202 308.103 20.771L307.67 20.7163L307.618 20.8053C307.348 20.9265 306.365 20.7903 305.982 20.8791C305.598 20.968 305.872 21.0683 306.447 21.1648C306.846 21.2366 307.275 21.2938 307.701 21.3322C308.128 21.3706 308.54 21.3891 308.907 21.3864C309.127 21.3769 309.309 21.3552 309.442 21.3226C310.218 21.184 311.075 21.0648 312.006 20.966C312.72 20.8772 313.615 20.8395 314.627 20.8554C314.923 20.8487 315.281 20.8697 315.638 20.9147C315.994 20.9598 316.326 21.026 316.575 21.1017L317.099 21.1142C317.099 21.1142 317.385 21.1922 317.345 21.205C317.145 21.4362 317.377 21.7189 318.005 22.0111L317.459 22.0376C316.678 22.0105 317.173 22.1866 317.056 22.2734C316.502 22.257 315.781 22.1837 315.518 22.2938L315.124 22.2858L315.279 22.3054L315.466 22.2693L316.2 22.4338C315.852 22.4615 315.6 22.4953 315.292 22.5102C315.123 22.5231 314.987 22.546 314.895 22.5774C314.803 22.6088 314.755 22.6481 314.755 22.693C314.756 22.762 314.664 22.8201 314.489 22.8617C314.314 22.9033 314.06 22.9271 313.754 22.9307C313.388 22.9322 313.178 23.0072 312.963 23.0339L313.896 23.4862C313.896 23.4862 313.432 23.4275 313.685 23.5072L313.717 23.4516L314.282 23.5648C314.689 23.6641 314.974 23.6881 315.214 23.617C315.455 23.5459 315.4 23.6405 315.515 23.6133C315.473 23.6856 315.211 23.7361 314.987 23.7794C314.728 23.8134 314.435 23.8385 314.114 23.8541C314.693 24.1722 314.72 24.1816 313.875 24.2658C313.029 24.35 313.321 24.4765 312.613 24.4945C311.906 24.5126 312.71 24.7278 313.184 24.7697C313.535 24.7973 313.893 24.8403 314.233 24.8957C314.574 24.9511 314.888 25.0176 315.155 25.0906L315.013 25.3354C314.805 25.3152 314.596 25.2888 314.395 25.2572C313.709 25.1228 313.086 24.9962 312.476 25.0743L312.766 25.2604L310.638 25.1525C310.693 25.2919 311.017 25.4507 311.543 25.5954C311.464 25.6748 311.415 25.7585 311.397 25.8457C311.362 25.9069 311.152 25.8684 311.015 25.875C310.528 25.8853 310.128 25.9267 309.85 25.9958C309.573 26.0649 309.427 26.1594 309.424 26.2711C309.369 26.3656 310.119 26.5619 310.587 26.5554C311.757 26.5743 313.022 26.6471 314.313 26.7698C315.101 26.7857 315.212 26.537 316.508 26.7068C316.533 26.8216 316.367 26.9146 316.035 26.9717C315.702 27.0288 315.221 27.0468 314.664 27.0231C314.981 27.2782 316.735 27.3447 316.812 27.6113C316.376 27.5924 315.909 27.5481 315.457 27.4827C315.006 27.4173 314.587 27.3331 314.24 27.2383C314.166 27.215 314.072 27.1934 313.968 27.1757C313.863 27.158 313.752 27.1447 313.644 27.137C313.536 27.1293 313.434 27.1274 313.349 27.1316C313.264 27.1358 313.198 27.1459 313.157 27.161C313.399 27.2574 313.667 27.3688 313.971 27.473C314.276 27.5772 314.349 27.6223 314.569 27.6442C316.208 27.8514 316.987 28.2246 318.405 28.4696C318.777 28.5165 318.823 28.6657 318.501 28.6488C318.194 28.632 317.917 28.6342 317.699 28.6552C317.482 28.6762 317.333 28.7152 317.27 28.7679C317.032 28.8293 316.736 28.8782 316.388 28.9133C317.843 29.2963 319.577 29.6347 321.428 29.8968C321.778 29.9486 322.144 29.9801 322.471 29.9869C323.504 29.9872 324.6 30.0176 325.738 30.0774C326.141 30.0937 326.514 30.0922 326.836 30.0729C327.891 30.0272 328.73 30.1273 329.495 30.4092L330.763 30.8561C330.721 30.9284 330.508 31.009 330.344 31.1197L331.334 31.3584L338.89 30.8087L340.407 31.3409L342.582 31.3113C342.749 31.3267 342.916 31.3479 343.077 31.3739C343.517 31.531 343.861 31.682 344.338 31.8319C344.815 31.9818 345.668 32 346.262 32.1767C346.857 32.3534 347.452 32.3571 348.188 32.462C348.257 32.5988 348.186 32.7219 347.978 32.8237C347.91 32.9405 347.536 33.0127 347.472 33.1239C347.479 33.2364 347.34 33.3319 347.067 33.4017C346.795 33.4715 346.398 33.5135 345.912 33.5239C344.55 33.7633 342.909 33.9338 341.037 34.0302C340.872 34.0372 340.736 34.0534 340.636 34.0778C340.536 34.1022 340.475 34.1342 340.457 34.1719C340.459 34.281 340.334 34.3754 340.091 34.4479C339.848 34.5205 339.493 34.5695 339.051 34.5914C338.934 34.5958 338.845 34.6095 338.796 34.6308C338.628 34.6445 338.506 34.6708 338.442 34.7071C338.377 34.7435 338.372 34.7886 338.426 34.8381C338.481 34.8877 338.594 34.94 338.754 34.99C338.914 35.04 339.116 35.086 339.34 35.1235C339.665 35.1841 339.997 35.242 340.334 35.2971C340.315 35.3305 339.98 35.3359 340.029 35.3659C340.161 35.4619 340.192 35.5519 340.118 35.6286C340.045 35.7054 339.87 35.7668 339.606 35.8082L341.412 36.5859C342.508 36.6936 343.583 36.8763 344.433 37.0993C344.435 37.1358 344.386 37.1664 344.292 37.1881C344.197 37.2097 344.061 37.2216 343.897 37.2226C343.456 37.2385 343.04 37.2695 342.565 37.2871C342.275 37.3002 342.033 37.3291 341.854 37.3721C341.676 37.4151 341.563 37.4714 341.523 37.5376L342.584 37.8269C342.244 37.8974 341.992 37.9312 341.768 37.9745C341.895 38.0655 342.113 38.1595 342.407 38.2494C342.7 38.3393 343.06 38.4226 343.458 38.4929C343.565 38.5074 343.674 38.518 343.779 38.5241C343.884 38.5301 343.982 38.5315 344.069 38.5282C344.89 38.429 345.85 38.6042 346.783 38.7699C347.716 38.9356 348.222 39.0355 348.911 39.1644L350.229 39.1817C350.562 39.2427 350.86 39.3144 351.098 39.3912C351.336 39.4679 351.507 39.5475 351.599 39.6236C351.528 39.746 350.903 39.679 350.53 39.6916C349.647 39.7678 348.485 39.7515 347.237 39.6455C346.928 39.6064 346.611 39.638 346.31 39.6417C345.661 39.657 345.037 39.6818 344.441 39.716C344.049 39.7479 343.682 39.7873 343.344 39.834C343.253 39.9898 344.677 40.1101 343.869 40.1871C344.147 40.2223 344.252 40.2713 344.395 40.2536C345.312 40.3547 346.215 40.4047 347 40.3978C348.506 40.3763 350.217 40.4473 351.992 40.6049C353.908 40.7683 355.745 40.8368 357.353 40.805C357.965 40.8032 358.65 40.8366 359.354 40.9028C360.186 40.9945 361.012 41.0521 361.779 41.072C362.033 41.0727 362.316 41.0883 362.604 41.1175C362.893 41.1468 363.18 41.1888 363.441 41.2403C363.418 41.2792 363.169 41.3075 363.225 41.3264C364.018 41.6179 364.34 41.9213 365.561 42.2191C366.396 42.3246 367.355 42.4458 367.901 42.3059C368.447 42.1659 368.251 42.0456 367.165 41.6872C367.401 41.6821 367.685 41.6988 367.967 41.7345C368.25 41.7703 368.513 41.8227 368.711 41.8827L369.651 42.1509L370.498 42.4072C370.424 42.5352 370.365 42.6353 370.304 42.7411C370.207 42.8533 370.314 42.99 370.608 43.1319C370.786 43.2093 370.941 43.2868 371.071 43.3636C371.601 43.6707 371.754 43.961 371.514 44.2019C371.054 44.5483 370.414 44.867 369.6 45.1543C368.741 45.4338 368.27 45.7864 367.562 46.0911C367.201 46.2298 366.763 46.3541 366.251 46.4627C365.281 46.7044 364.218 46.9343 363.245 47.1815C362.271 47.4286 361.172 47.6062 360.091 47.8099C358.482 48.0517 356.742 48.2605 354.882 48.4352C353.731 48.5883 352.549 48.7374 351.484 48.9134C350.226 49.1116 348.749 49.2541 347.088 49.337C345.622 49.4363 344.311 49.5832 343.183 49.7748C343.064 49.7956 342.971 49.8219 342.905 49.8532C342.702 50.0486 342.132 50.1863 341.283 50.2453C341.334 50.3025 341.4 50.3607 341.48 50.4196C341.598 50.4898 341.623 50.5554 341.551 50.6081C341.479 50.6607 341.314 50.698 341.077 50.7149C340.398 50.7633 339.833 50.8455 339.409 50.9579C339.253 50.986 339.156 51.0271 339.127 51.0775C339.097 51.1279 339.136 51.1861 339.241 51.2472C339.333 51.31 339.34 51.3678 339.26 51.4131C339.18 51.4585 339.018 51.4892 338.794 51.5013C338.219 51.5608 337.604 51.6086 336.952 51.6446C335.564 51.7238 333.95 51.7228 332.206 51.6418C332.021 51.6183 331.834 51.6544 331.617 51.627C330.385 51.5362 329.24 51.5221 328.321 51.5865C327.245 51.6116 326.119 51.6066 324.983 51.6184C323.343 51.6105 321.83 51.6583 320.486 51.7604C318.95 51.6617 318.086 51.8333 316.79 51.8366C315.593 51.8542 314.458 51.8964 313.397 51.963C311.686 52.0512 309.981 52.1283 308.295 52.2316C306.713 52.2808 305.256 52.3749 303.949 52.5123C303.448 52.5743 302.542 52.4776 302.201 52.6077C301.86 52.7378 301.172 52.7224 300.615 52.7656L298.86 52.8722C298.559 52.8975 298.227 52.9136 297.87 52.9201C296.238 52.9288 295.108 53.1025 293.594 53.1379L293.439 53.1184C290.751 53.3765 287.673 53.5182 284.299 53.5393C282.327 53.6185 280.172 53.6147 278.08 53.6727C277.581 53.7888 276.403 53.6457 275.777 53.7517C275.151 53.8577 274.129 53.7883 273.322 53.8057C272.515 53.8231 271.726 53.8667 270.864 53.8652C270.115 53.8657 269.483 53.913 269.025 54.0029C267.979 54.1515 266.704 54.2388 265.257 54.261C263.342 54.2996 261.532 54.3873 259.585 54.368C259.612 54.4763 259.493 54.5684 259.238 54.6349C258.984 54.7014 258.604 54.7398 258.137 54.7463C256.054 54.7876 254.166 54.8952 252.056 54.9271L251.492 54.9274L245.182 54.9895C243.482 55.0015 241.844 55.0214 240.11 55.035C239.46 54.9529 239.444 55.0942 238.995 55.0673C238.87 54.9977 238.722 54.967 238.501 55.0048L238.452 55.0882L231.251 55.1989C228.431 55.2799 225.465 55.3042 222.378 55.2716C221.646 55.2798 220.963 55.3074 220.339 55.3541C219.761 55.3711 219.158 55.3787 218.533 55.3766C217.689 55.3556 216.864 55.345 216.062 55.3449C213.952 55.3767 211.738 55.3595 209.428 55.3362C207.118 55.3128 205.367 55.3543 203.311 55.3511C201.919 55.3482 200.532 55.3342 199.091 55.3013C198.403 55.2859 197.555 55.2026 196.842 55.1722C196.129 55.1418 195.897 55.1423 195.803 55.1901C195.493 55.3241 194.713 55.2374 194.09 55.2244C192.874 55.2021 192.702 55.1564 192.372 54.8101L193.863 54.7C194.228 54.6645 194.688 54.6583 195.198 54.6819C195.707 54.7055 196.25 54.7582 196.772 54.835C196.978 54.8678 197.193 54.8938 197.405 54.9114C197.617 54.929 197.822 54.9378 198.008 54.9374C199.512 54.9186 200.996 54.8792 202.442 54.8471L202.653 54.826L202.667 54.5172C202.475 54.4868 202.277 54.4618 202.079 54.4429L194.826 54.2425C193.161 54.1933 191.433 54.0823 189.8 54.037C188.166 53.9917 187.286 53.964 186.019 53.9172C185.484 53.8906 184.938 53.8556 184.386 53.8124C184.418 53.7827 184.437 53.751 184.441 53.7178C184.47 53.6678 184.509 53.601 184.275 53.5474C184.019 53.4719 183.677 53.4073 183.317 53.3667C182.98 53.3399 182.652 53.3247 182.348 53.3217C180.877 53.2958 179.196 53.1327 177.665 52.8671L177.131 53.0444C174.832 52.9448 172.499 52.8469 170.097 52.7522C169.616 52.7264 169.111 52.6769 168.621 52.6074C168.095 52.5409 167.611 52.4021 167.058 52.3262C166.511 52.2715 165.968 52.2289 165.439 52.1991C165.582 52.1535 165.771 52.117 166 52.0909C166.225 52.0817 166.388 52.0532 166.467 52.0095C166.546 51.9658 166.537 51.9092 166.439 51.8479C166.268 51.7426 166.193 51.6435 166.565 51.6309C166.91 51.6069 167.156 51.5549 167.275 51.4811C167.394 51.4073 167.382 51.3148 167.239 51.2144C167.176 51.1557 167.132 51.0982 167.106 51.0424L166.952 51.0228C166.441 50.815 165.423 50.7399 164.692 50.5699C164.347 50.5206 163.989 50.4922 163.676 50.4892C162.867 50.4527 162.08 50.4367 161.244 50.3907C160.844 50.3696 160.426 50.3309 160.015 50.2772C159.427 50.2029 159.366 50.1951 159.024 49.925C159.554 49.9297 159.974 49.8894 160.213 49.8108C160.453 49.7322 160.496 49.6202 160.337 49.4938C159.9 49.2175 159.438 48.9263 157.461 48.73C158.106 48.7203 158.726 48.7011 159.32 48.6724C159.493 48.6663 159.622 48.646 159.691 48.6143C159.759 48.5826 159.764 48.541 159.704 48.4951C159.644 48.4492 159.522 48.4012 159.355 48.3574C159.188 48.3137 158.983 48.2763 158.768 48.2503C157.725 48.0941 156.636 47.9895 155.624 47.9484C154.772 47.9302 154.002 47.9404 153.007 47.9399L151.831 47.7913C151.851 47.7579 151.678 47.7122 151.722 47.6939C152.021 47.5226 152.35 47.3553 152.689 47.1712C152.147 47.0718 151.678 46.9519 151.335 46.825C150.992 46.6982 150.788 46.5696 150.749 46.4541C150.719 46.4192 150.727 46.3874 150.771 46.361C150.815 46.3346 150.894 46.3142 151.003 46.3012C151.313 46.2788 151.552 46.2361 151.701 46.1764C151.851 46.1166 151.908 46.0414 151.867 45.9565L150.954 45.6439C148.202 45.4208 145.5 45.2615 142.897 45.1688L140.548 45.0987C140.264 45.015 140.352 44.9784 140.619 44.9762C140.886 44.9742 141.636 44.9973 142.16 45.0098C142.612 45.0262 143.014 45.0154 143.326 44.9785C143.638 44.9416 143.85 44.8798 143.942 44.7992L143.153 44.4426C143.192 44.3759 143.246 44.2813 143.674 44.2876C143.967 44.2799 144.182 44.2463 144.286 44.1922C144.389 44.1381 144.375 44.0668 144.246 43.9896C144.226 43.9338 144.256 43.8829 144.333 43.8394C144.966 43.8358 145.595 43.8377 146.169 43.8208C146.437 43.8151 146.663 43.7945 146.832 43.7602C147 43.7258 147.108 43.6787 147.148 43.622C147.169 43.5666 147.118 43.5035 147.001 43.4378C146.883 43.3721 146.702 43.3057 146.471 43.2438C145.571 43.1673 144.748 43.1663 144.182 43.2411C143.981 43.2997 143.657 43.3317 143.253 43.3329C142.849 43.3341 142.385 43.3044 141.921 43.2478C141.39 43.1825 140.86 43.1538 140.427 43.1669C139.993 43.1799 139.684 43.2339 139.556 43.319C139.011 43.2859 138.528 43.2607 138.051 43.2243C137.488 43.1784 136.957 43.1648 136.513 43.1852C135.804 43.1995 135.04 43.1911 134.237 43.1602C131.925 43.0828 129.61 43.0111 127.371 42.9789C126.779 42.9697 126.267 42.9945 125.681 42.9742C125.095 42.9539 124.632 43.0087 123.9 42.8982C123.76 42.881 123.62 42.87 123.489 42.866C123.359 42.862 123.243 42.8651 123.149 42.875C121.863 42.9624 120.355 42.9748 118.713 42.9114C116.465 42.8958 114.134 42.8519 111.882 42.8419C111.222 42.8505 110.598 42.8735 110.016 42.9106C109.574 42.9331 109.111 42.9483 108.629 42.9562C108.26 42.9632 107.907 42.9425 107.969 43.0638C108.031 43.1851 107.478 43.1092 107.159 43.0868C106.063 43.028 104.943 42.9483 103.812 42.8487C102.697 42.7405 101.604 42.6775 100.599 42.6636C99.8739 42.6554 99.1257 42.6863 98.1928 42.5205C98.2283 42.4593 98.2638 42.3981 98.4669 42.3342C97.7062 42.1584 96.8382 42.0071 95.9347 41.8929C95.0312 41.7787 94.1183 41.7048 93.2714 41.6773L92.1036 41.3446C91.816 41.3055 91.5225 41.277 91.2408 41.2609C90.9591 41.2448 90.6951 41.2414 90.4649 41.2508C90.2871 41.2557 90.0703 41.2433 89.8544 41.216C89.6386 41.1887 89.4381 41.1483 89.2897 41.1023C89.068 41.0437 88.7971 40.9931 88.5111 40.957C88.225 40.9208 87.9365 40.9006 87.6816 40.8989C86.8792 40.8627 86.0227 40.7792 85.1997 40.6568C84.9861 40.5851 84.8523 40.5109 84.8147 40.4436C84.7772 40.3762 84.8376 40.3186 84.9883 40.2777C85.2314 40.2056 85.3679 40.1137 85.3896 40.0077C85.4112 39.9016 85.3175 39.7835 85.1142 39.6606C85.0101 39.5852 84.9753 39.5137 85.0119 39.4506C85.0486 39.3875 85.1559 39.334 85.3274 39.2934C85.9675 39.1056 85.7963 39.0004 84.7489 38.6888C84.5788 38.6369 84.3737 38.5883 84.1467 38.5462C83.9196 38.5042 83.6757 38.4695 83.4302 38.4444C82.8542 38.3936 82.286 38.3559 81.7362 38.3318C81.4269 38.2927 81.1098 38.3242 80.7535 38.309C78.9718 38.2331 78.711 38.1105 78.134 37.8465L77.7134 37.6559C76.9335 37.5016 76.0806 37.3734 75.216 37.2807C74.3515 37.1879 73.4969 37.1328 72.7137 37.1194C72.4024 37.1184 72.0445 37.092 71.695 37.0443C70.5573 36.8985 69.4051 36.7976 68.3148 36.7483C67.6354 36.7206 66.903 36.6488 66.2057 36.5415C65.5083 36.4343 64.8756 36.2962 64.3835 36.1438C63.9415 36.0065 63.3632 35.8833 62.7292 35.7913C61.987 35.6975 61.9182 35.5873 62.3327 35.5023C62.7472 35.4173 63.4414 35.308 64.0575 35.2187C64.272 35.1884 64.4048 35.139 64.4413 35.0762C64.4778 35.0133 64.4165 34.9394 64.2643 34.8627C64.1665 34.7314 64.1495 34.6068 64.2138 34.492C64.2482 34.4443 64.2245 34.3896 64.1443 34.3315C64.0641 34.2735 63.9293 34.2135 63.749 34.1557C63.5687 34.0978 63.3471 34.0433 63.099 33.996C62.851 33.9486 62.5823 33.9095 62.3112 33.8812C61.1669 33.7365 60.0536 33.5957 58.8867 33.49C58.3977 33.4402 57.9092 33.3784 57.4332 33.3062C56.4588 33.1277 55.4164 32.9797 54.3664 32.8707C53.8681 32.822 53.381 32.7368 53.0103 32.6336C51.8414 32.3555 50.7643 32.0631 49.7985 31.7617C49.5657 31.6682 49.2612 31.577 48.9039 31.4938C48.5466 31.4106 48.1443 31.3372 47.7223 31.2782C47.3821 31.2352 47.1052 31.1405 46.843 31.0775C46.6525 30.9316 46.6321 30.7966 46.7839 30.6852C46.9356 30.5738 47.2545 30.4897 47.7106 30.4407C48.1431 30.3819 48.5479 30.3136 48.9217 30.2415C49.3724 30.1831 49.9082 30.1481 50.5091 30.1376C51.2208 30.1063 51.7471 30.0167 52.0193 29.8806C50.071 29.6343 48.2182 29.2806 46.5104 29.3633L45.2128 29.1395C45.2645 29.0505 45.3097 28.9726 45.3517 28.9003C45.6603 28.7686 45.7567 28.6026 45.6327 28.4162C45.5305 28.3261 45.5397 28.2441 45.6594 28.1785C45.7791 28.1129 46.0051 28.066 46.3144 28.0426C48.1468 27.8025 50.2658 27.6404 51.9842 27.368C52.523 27.3168 53.1537 27.2936 53.8498 27.2993C54.5233 27.2829 54.4951 27.1599 53.7201 27.0082C53.2851 26.9289 52.8417 26.8529 52.3916 26.7805C50.4069 26.7684 49.5983 27.132 47.3334 27.0308L46.2836 26.5517C45.9998 26.5443 45.7242 26.5414 45.4588 26.543L41.6611 26.7376C41.3448 26.7474 41.0985 26.7807 40.9504 26.8337C40.8022 26.8868 40.758 26.9575 40.8229 27.0378C40.8486 27.136 40.7963 27.2261 40.6679 27.3048C40.585 27.3599 40.638 27.4332 40.8152 27.5086C41.2145 27.6785 40.7022 27.7033 40.3786 27.746C40.2959 27.7502 40.2005 27.7497 40.098 27.7447C39.9955 27.7396 39.888 27.7301 39.7815 27.7167C39.6751 27.7032 39.5719 27.6861 39.478 27.6663C39.384 27.6465 39.3012 27.6244 39.2344 27.6013C38.6643 27.4397 38.1657 27.2691 37.6053 27.0908C38.0032 26.9201 37.5351 26.64 38.1559 26.4856C38.2253 26.4547 38.2531 26.4171 38.2375 26.3751C38.222 26.3331 38.1634 26.2875 38.0653 26.2412C37.8125 26.1217 37.6922 26.0051 37.7163 25.9033C37.7404 25.8015 37.9082 25.7181 38.2028 25.6614L38.2383 25.6002C37.4615 25.3945 37.6673 25.2115 37.3622 24.9938L36.6149 24.8515C34.7556 24.5089 34.7523 24.5145 33.1516 24.5271C32.829 24.3967 33.2389 24.3769 33.5463 24.362L36.1209 24.2157C37.8043 24.118 39.5365 24.0504 41.4169 24.0134C43.2974 23.9765 45.3938 23.8533 47.3374 23.7647C47.4357 23.7578 47.5109 23.7442 47.5566 23.7251C47.6024 23.7059 47.6174 23.6817 47.6005 23.6546C47.5232 23.6252 47.4221 23.5969 47.3046 23.5717C47.187 23.5465 47.0561 23.5251 46.9214 23.509C46.3029 23.4308 45.6683 23.3804 45.0092 23.315L43.7804 23.2015L43.4024 23.0522C43.1564 22.9613 42.9883 22.8505 42.661 22.7852C42.3913 22.7366 42.0986 22.6996 41.8132 22.6782C41.5278 22.6569 41.2604 22.6518 41.0386 22.6637C40.4238 22.6935 39.8676 22.7366 39.2805 22.7759C38.6934 22.8151 38.3698 22.8578 37.8607 22.877C36.8264 22.8858 35.8267 22.9089 34.8661 22.9463C34.057 23.0348 33.3087 23.1397 32.6258 23.2602C32.1997 23.3079 31.8013 23.365 31.0739 23.3029C30.7288 23.2466 30.4311 23.1726 30.2336 23.0941C30.0362 23.0155 29.9517 22.9375 29.9951 22.8739C30.0342 22.824 30.1447 22.7846 30.3162 22.7592C30.4877 22.7339 30.7146 22.7235 30.9755 22.7291C31.7057 22.7199 32.3809 22.6891 32.9875 22.6371C33.8319 22.543 34.8598 22.5024 36.0112 22.5178C36.4017 22.5313 36.6634 22.4808 37.005 22.4643C37.3465 22.4477 37.6359 22.4067 38.0167 22.4369C39.1997 22.5148 39.7669 22.3954 40.4759 22.3179C40.7159 22.2835 40.8646 22.2279 40.9056 22.1572C40.9466 22.0865 40.8784 22.0035 40.7085 21.9173C40.3812 21.7456 39.981 21.5729 39.5139 21.402C39.2735 21.3179 38.9655 21.2381 38.6141 21.1688C38.2627 21.0996 37.8773 21.0426 37.4884 21.0025C37.2556 20.8974 37.1314 20.794 37.127 20.7017C37.1227 20.6093 37.2383 20.531 37.4634 20.4739C38.0371 20.3433 38.5457 20.2106 39.8312 20.2835C40.4356 20.3114 41.0044 20.3167 41.515 20.2993C42.6475 20.2755 43.9539 20.3276 45.311 20.4508C45.6621 20.4824 46.0072 20.5039 46.3362 20.5147C48.6823 20.5904 50.9177 20.6282 53.1595 20.6548C54.3471 20.6676 55.5445 20.6638 56.7842 20.7011C59.6917 20.782 62.3383 20.7404 65.1447 20.7668C66.6144 20.7803 67.93 20.7258 69.0223 20.6061C69.235 20.5659 69.4177 20.5191 69.5683 20.4661C68.8444 20.327 68.0493 20.2169 67.2591 20.1462C66.4689 20.0756 65.7102 20.0469 65.0555 20.0627C64.6956 20.1017 64.2303 20.1088 63.7118 20.0833C63.1932 20.0578 62.6416 20.0007 62.1185 19.9183L63.6394 19.8717C64.6479 19.85 65.6809 19.8432 66.6617 19.812C68.2199 19.7581 69.6641 19.672 71.2778 19.6371C72.5805 19.6051 73.7464 19.5231 74.7386 19.3939C75.4554 19.2996 76.2741 19.2328 77.178 19.1947C77.8205 19.1744 77.8205 19.1744 78.2312 18.9815C77.9053 18.8567 77.4839 18.8392 77.087 18.8368C74.7072 18.7583 72.4424 18.7445 70.3388 18.7958C69.2775 18.8004 68.3359 18.8533 67.5593 18.952C67.3691 18.9937 66.8826 18.9739 66.4921 18.9604C65.268 18.9398 64.098 18.9458 62.9962 18.9783C61.4729 19.0324 59.7763 19.0195 57.9724 18.9403C57.6304 18.8433 58.0241 18.8513 58.0435 18.8179C59.4406 18.7556 60.8101 18.6839 62.235 18.6312C62.6245 18.6124 63.0409 18.6031 63.4794 18.6034C65.1165 18.6361 66.4807 18.5455 67.381 18.3442C67.4262 18.2663 68.0184 18.2755 68.2801 18.225C68.4089 18.1813 68.4946 18.1298 68.5348 18.0721C68.1535 17.9283 67.7224 17.9275 67.3906 17.9274C66.4276 17.9434 65.5011 17.9739 64.6157 18.0185C63.7926 18.061 62.8815 18.0723 61.9071 18.0523C61.188 18.033 60.5732 18.0628 59.8476 18.0546C59.454 18.0375 59.0466 18.0101 58.6337 17.9728C59.0935 17.8726 59.7185 17.811 60.4648 17.7923C61.0306 17.7324 61.7382 17.7144 61.8286 17.5586C61.5614 17.4472 61.2636 17.4454 61.0245 17.4569C60.5269 17.4565 60.0461 17.4635 59.5849 17.478C58.6069 17.5096 57.548 17.5101 56.4305 17.4793C55.8421 17.4678 55.2837 17.4712 54.7647 17.4896C53.5886 17.5141 52.4615 17.5687 51.3847 17.5938C49.1788 17.6194 47.1669 17.7115 45.0474 17.76C44.5757 17.772 44.1528 17.8141 43.5311 17.7415C42.9094 17.6688 42.8817 17.6594 42.8083 17.6142C42.6343 17.539 42.5816 17.466 42.6611 17.4105C42.7844 17.3586 43.0246 17.3297 43.339 17.329C45.2337 17.2465 47.0308 17.1306 48.7191 16.982C49.462 16.9523 50.113 16.8916 50.6493 16.8021C51.0746 16.7404 51.5791 16.6996 52.147 16.6809C52.973 16.6363 53.8341 16.6037 54.7268 16.5831C55.1421 16.572 55.4953 16.539 55.7655 16.4859C56.0357 16.4329 56.2175 16.361 56.3001 16.2744L55.2058 15.9867C55.0338 15.9733 54.8633 15.9617 54.6948 15.952L45.6116 16.1592L44.712 16.1649C43.7261 16.1477 43.4852 16.1053 42.55 15.7721C44.6843 15.6937 46.362 15.4652 47.4162 15.1093C47.1629 15.0711 46.9031 15.0382 46.643 15.0116C44.9374 14.9274 43.325 14.9051 41.8681 14.9454C41.0026 14.9494 40.1127 14.9384 39.2196 14.933C39.4808 14.7689 40.4815 14.8178 41.1337 14.7808C42.692 14.723 44.07 14.6034 45.2236 14.426C45.6213 14.3569 46.1189 14.3126 46.6936 14.2954C47.2687 14.2894 47.7492 14.2476 48.0931 14.1734C48.4369 14.0993 48.6339 13.9951 48.6667 13.87C48.7209 13.7567 48.8377 13.6515 49.0152 13.5558C48.7011 13.42 48.2023 13.29 47.6124 13.1901C47.0225 13.0902 46.3821 13.0274 45.8114 13.0133C44.593 12.9574 43.3292 12.8659 42.0523 12.7411C41.4162 12.6782 40.7925 12.642 40.2217 12.6351C39.7183 12.6297 39.1461 12.5843 38.5924 12.5056C38.0387 12.427 37.5339 12.3195 37.1549 12.1996C36.6435 12.0513 36.1662 11.9014 35.6889 11.7514C35.2116 11.6015 34.6577 11.4121 34.1006 11.2281C33.6093 11.1994 33.131 11.1809 32.672 11.1729C32.3149 11.1797 31.8982 11.1596 31.4711 11.1151C31.0441 11.0707 30.6243 11.0036 30.2616 10.9219C30.4744 10.8413 30.7149 10.7702 30.9683 10.6768C30.6204 10.5535 30.3683 10.4278 30.2271 10.3073C30.0859 10.1868 30.0586 10.074 30.147 9.97581C30.1987 9.8868 29.8206 9.73747 29.69 9.61943C29.5218 9.51767 29.4902 9.42271 29.5993 9.34699C29.7084 9.27126 29.9532 9.21833 30.3015 9.19511C30.7335 9.15226 31.0851 9.08773 31.3418 9.00416C31.4268 8.98246 31.47 8.95276 31.4676 8.91775C31.4652 8.88274 31.4172 8.84355 31.328 8.80376C31.2388 8.76397 31.1113 8.72485 30.9571 8.68999C30.8029 8.65512 30.627 8.62561 30.4454 8.60417C29.8891 8.54337 29.3367 8.50396 28.8197 8.4882C27.9292 8.45922 27.0767 8.44101 26.2622 8.43358C25.3613 8.4224 24.3592 8.35339 23.3574 8.23355C22.4606 8.12016 21.6565 8.01849 21.218 7.8018C20.7795 7.58512 20.0783 7.59202 19.5392 7.43428C19.842 7.29208 20.3803 7.19329 21.0997 7.14785C21.5705 7.13164 21.9635 7.08907 22.2534 7.02289C22.5434 6.95671 22.7239 6.86837 22.7835 6.76354L21.1466 6.32369C19.8394 6.11661 19.1162 6.27599 17.7038 6.19297L19.1591 6.03059C19.1883 6.01454 19.1993 5.9957 19.1914 5.97496C19.0501 5.64655 18.8253 5.57633 17.3376 5.39421L16.5027 5.28864L15.1811 5.16336C14.9695 5.09605 14.8231 5.02587 14.7566 4.95982C14.6901 4.89377 14.7058 4.83417 14.8021 4.78699C14.9957 4.70763 15.0546 4.60623 14.9733 4.49211C14.8451 4.41652 14.8346 4.34684 14.9434 4.29515C15.0522 4.24345 15.2736 4.21302 15.5692 4.20913C15.805 4.20312 15.8225 4.11576 15.9508 4.06629C16.0783 3.9981 16.2965 3.94579 16.5906 3.91289C16.8847 3.87999 17.2476 3.86728 17.6549 3.87564C18.8556 3.88247 19.9836 3.85687 21.0188 3.79931L20.8332 3.77585C21.9122 3.82639 22.921 3.83251 23.8103 3.79394C24.7016 3.74539 25.8454 3.77653 26.7921 3.74692C27.5628 3.75372 28.1495 3.68652 28.4278 3.55959C28.6974 3.4384 29.6768 3.46668 30.4269 3.48985C30.8712 3.50483 31.3006 3.51119 31.7105 3.50882C32.2608 3.4814 32.9488 3.50725 33.6598 3.58209C33.8731 3.60509 34.0833 3.61726 34.27 3.61743C36.0775 3.64889 37.8817 3.6859 39.6648 3.70232C40.0763 3.69286 40.559 3.71451 41.0559 3.76474C41.2648 3.78654 41.4681 3.79558 41.6385 3.79062C44.4559 3.74074 47.6352 3.868 50.3972 3.79918C50.732 3.78292 51.1026 3.77954 51.4986 3.78913C52.3883 3.82956 53.161 3.80354 53.6993 3.71502C53.9897 3.66794 54.362 3.642 54.7925 3.63885C55.223 3.6357 55.7022 3.65541 56.1996 3.69672C57.0273 3.75142 57.7922 3.75735 58.4137 3.71389C59.6255 3.67373 60.8999 3.65723 62.2268 3.66449C62.6333 3.67151 62.9907 3.65591 63.2713 3.61888C63.5518 3.58186 63.7479 3.52441 63.8445 3.45098C63.5186 3.32617 63.1623 3.31098 62.824 3.32196C61.5126 3.29351 60.2045 3.25951 58.9177 3.24611C57.7659 3.20782 56.6607 3.19612 55.6184 3.21117C55.1008 3.22815 54.455 3.18943 53.8219 3.10348C53.046 2.99462 52.2468 2.94053 51.586 2.95217C51.0961 2.95506 50.5789 2.94568 50.0421 2.92418C49.6985 2.89824 49.3462 2.85371 49.0216 2.79515C48.8927 2.76972 48.7525 2.74833 48.6098 2.73236C48.4672 2.71639 48.3254 2.7062 48.1932 2.70242C48.0611 2.69864 47.9416 2.70135 47.8424 2.71041C47.7433 2.71946 47.6667 2.73464 47.6175 2.75498C47.1204 2.92504 46.0089 2.83826 45.0571 2.81944C43.6308 2.53162 42.5693 2.70198 41.2363 2.53941C41.1309 2.52863 41.027 2.5221 40.931 2.52024C40.8351 2.51838 40.7491 2.52121 40.6782 2.52857C38.0985 2.62642 35.0919 2.54487 32.3834 2.57866C32.0847 2.5836 31.7379 2.56667 31.3827 2.52978C29.0608 2.28564 26.8284 2.21632 25.1219 2.3354C24.9142 2.34612 24.678 2.34658 24.424 2.33675C23.2573 2.23972 22.1415 2.20103 21.1699 2.22392C19.6472 2.21653 18.1831 2.22252 16.6359 2.20009C15.5694 2.16818 14.6338 2.20227 13.9228 2.29898C13.9002 2.33792 13.4266 2.29596 13.0638 2.29189C12.8551 2.19385 12.6743 2.10529 12.4591 2.01838C12.2669 1.91085 11.9788 1.80203 11.6146 1.69932C11.2504 1.5966 10.8186 1.50239 10.3483 1.42304C9.54424 1.32138 9.46383 1.17386 10.0265 1.11958C11.4767 0.940018 13.3003 0.866524 15.3631 0.904493C17.0875 0.907529 18.8429 0.914482 20.5918 0.932553C21.6119 0.948057 22.6873 0.982495 23.6797 0.988525C24.0145 1.00177 24.3585 1.0213 24.7081 1.04689C25.137 1.08399 25.5534 1.10421 25.9349 1.10645C27.1601 1.07521 28.5273 1.10243 29.9714 1.18682C30.5004 1.20522 31.0083 1.21142 31.4876 1.20533C32.6216 1.18243 33.851 1.19928 35.1432 1.25546C35.9464 1.28714 36.7252 1.3037 37.4715 1.30498C37.735 1.30844 37.9497 1.28183 38.2035 1.30198C40.438 1.51283 42.0202 1.36053 44.0313 1.44161C45.0087 1.46422 45.9425 1.46428 46.8196 1.44181C48.5313 1.44289 50.2907 1.46601 52.0908 1.51106C54.4711 1.58508 56.6769 1.5594 58.9497 1.58996C59.3984 1.59638 59.8317 1.59529 60.2463 1.58668C62.2633 1.5298 64.454 1.54186 66.765 1.62257C67.2898 1.63423 67.7611 1.61997 68.1495 1.5807C68.5378 1.54143 68.8349 1.47798 69.022 1.39434C69.1012 1.33693 69.0499 1.26237 68.878 1.18503C68.5928 1.08626 68.2706 0.989491 67.917 0.896309L55.0525 0.583634C54.5122 0.567306 53.9852 0.558517 53.4744 0.557301C51.972 0.554582 50.4233 0.530257 48.8361 0.484448C47.2677 0.441418 45.7694 0.449057 44.2499 0.436101C43.8023 0.431762 43.3429 0.421522 42.8735 0.405412C39.7009 0.277909 36.6072 0.200032 33.6143 0.172339C32.3552 0.16841 30.9949 0.109894 29.7113 0.0909271C28.4277 0.0719601 26.6723 0.0650163 25.1496 0.057624L20.4352 0.0587585C19.5079 0.0549846 18.605 0.0662439 17.7054 0.0719439C16.6137 -0.334818 16.2375 -0.430159 14.7808 -0.608368C14.2824 -0.674105 13.7755 -0.713333 13.3195 -0.721463C11.8734 -0.689307 10.0589 -0.823162 8.6876 -0.805441C7.86013 -0.814181 7.15798 -0.768995 6.65304 -0.674504C6.21472 -0.600347 5.71348 -0.541667 5.15709 -0.499354C3.63292 -0.847329 3.4986 -1.07333 4.64512 -1.16128C4.95575 -1.18172 5.38362 -1.1754 5.60794 -1.2187C5.73665 -1.24507 5.91247 -1.26015 6.12141 -1.26276C6.33034 -1.26537 6.5666 -1.25543 6.81166 -1.23372C7.58509 -1.17678 8.31002 -1.16339 8.9137 -1.19489C9.48184 -1.23659 10.1782 -1.23492 10.9358 -1.19005C11.4925 -1.11967 11.9817 -1.21905 12.4632 -1.24776C12.9446 -1.27648 13.3396 -1.32805 14.0915 -1.2509C14.2292 -1.23554 14.3659 -1.22632 14.4911 -1.22394C14.6164 -1.22157 14.7268 -1.22611 14.8139 -1.23721C15.6215 -1.28689 16.5852 -1.28167 17.6267 -1.22197C19.2242 -1.16322 20.723 -1.16102 22.0712 -1.21544C22.8782 -1.26305 23.5663 -1.34749 24.1085 -1.46546C24.2563 -1.50492 24.4758 -1.52858 24.7459 -1.53417C26.1023 -1.50956 27.5752 -1.41692 29.0695 -1.26224C29.6324 -1.20026 30.1946 -1.15123 30.7441 -1.1162C31.8734 -1.03839 32.9657 -0.99479 33.9885 -0.986688C35.4748 -0.985403 37.0222 -0.955465 38.6171 -0.897144C39.6014 -0.864669 40.5498 -0.852683 41.4511 -0.861316C42.3775 -0.865388 43.3666 -0.840616 44.396 -0.787582C45.4197 -0.744364 46.3219 -0.769264 46.9937 -0.859271C47.2149 -0.907772 47.3931 -0.965367 47.5249 -1.03098C46.0261 -1.24448 44.4759 -1.35299 43.1865 -1.33465C42.6968 -1.34879 42.2902 -1.33451 41.7741 -1.41767L41.758 -1.38986C41.6553 -1.37181 41.5003 -1.36755 41.3227 -1.37789C41.1451 -1.38824 40.9571 -1.41246 40.7947 -1.44595C40.8561 -1.55166 40.9142 -1.6518 40.9562 -1.72413C41.9386 -1.71137 42.8924 -1.7124 43.8129 -1.72724C44.5888 -1.74858 45.6421 -1.56166 46.3137 -1.63202C47.6236 -1.54403 48.4576 -1.66552 49.6323 -1.63046C50.807 -1.59541 52.1009 -1.4796 53.2756 -1.44455C54.3006 -1.42531 55.2959 -1.42113 56.2559 -1.43202C56.5872 -1.44731 56.9693 -1.44373 57.3784 -1.42148C57.9536 -1.37963 58.4887 -1.37262 58.9221 -1.40125C59.3556 -1.42988 59.67 -1.49301 59.8293 -1.58339C59.6793 -1.66805 59.4772 -1.77721 59.244 -1.8903C59.6729 -1.98321 60.3241 -2.02234 61.1013 -2.00185L62.1994 -2.00633C62.4904 -2.00388 62.7128 -2.029 62.8207 -2.0765C62.9286 -2.12399 62.9138 -2.19022 62.7791 -2.2615C60.6969 -2.62031 60.6203 -2.65986 59.092 -2.42907L57.0629 -2.53632L57.0971 -2.53796ZM84.5422 -1.55232L84.3876 -1.57187L84.5422 -1.55232ZM337.407 36.623L337.371 36.6842L337.41 36.6174L337.75 36.6604L337.773 36.6215L337.407 36.623ZM288.016 9.799C287.535 9.73223 287.049 9.67085 286.562 9.61523C286.434 9.6066 286.315 9.60465 286.214 9.60954C286.113 9.61444 286.033 9.62603 285.981 9.64333C285.943 9.71009 286.214 9.75641 286.462 9.7877C286.774 9.82979 287.093 9.85655 287.385 9.8652C287.678 9.87384 287.934 9.86408 288.126 9.83689L288.406 9.81254L288.016 9.799ZM40.3552 26.0709C40.6717 26.0821 40.972 26.0839 41.2484 26.0763C42.4747 26.0224 43.6489 25.9439 44.9062 25.8938C46.4926 25.7668 48.3155 25.715 50.3065 25.7405C51.0844 25.753 51.7416 25.7118 52.2013 25.6218C52.4766 25.5735 52.8318 25.5452 53.2453 25.5388L58.509 25.3921C58.8344 25.3617 59.1157 25.319 59.3463 25.2651C58.8824 25.2064 58.5732 25.1673 58.3876 25.1439C58.0026 25.1373 57.6717 25.1551 57.4281 25.1957C57.1663 25.2645 56.7239 25.2917 56.1887 25.2719C55.6484 25.2556 55.1215 25.2468 54.6107 25.2456C53.646 25.249 52.6748 25.2636 51.7069 25.2726C51.3302 25.4639 50.2188 25.3771 49.267 25.3583L48.5317 25.3668C46.1283 25.466 43.8324 25.6024 41.6553 25.7754C41.2346 25.8047 40.8721 25.8514 40.579 25.9141C40.4686 25.9629 40.4332 26.0239 40.4757 26.0921L40.3211 26.0725L40.3552 26.0709ZM147.683 44.3585C148.266 44.3715 148.873 44.3983 149.496 44.4384C149.975 44.4793 150.443 44.5042 150.88 44.5119C153.332 44.5548 155.886 44.6538 158.51 44.8077C158.853 44.831 159.182 44.8424 159.486 44.8415L161.633 44.8025C162.31 44.7805 162.323 44.7583 161.83 44.4631C161.421 44.4058 161.008 44.3535 160.593 44.3067C160.346 44.2754 159.944 44.2246 159.85 44.2724C159.276 44.4029 158.229 44.3184 157.349 44.2907C154.801 44.2194 152.174 44.1141 149.601 44.0277C149.057 44.0066 148.531 43.9959 148.026 43.9958C147.713 43.9914 147.428 43.9997 147.182 44.0205C147.11 44.0226 147.05 44.0288 147.006 44.0386C146.961 44.0484 146.933 44.0617 146.924 44.0774C146.915 44.0932 146.925 44.1112 146.953 44.1302C146.98 44.1491 147.026 44.1686 147.085 44.1874C147.296 44.2531 147.539 44.316 147.807 44.3741L147.683 44.3585ZM166.348 1.51677L168.858 1.48178C169.159 1.47802 169.414 1.43863 169.736 1.45548C171.455 1.50887 173.046 1.494 174.442 1.4115C174.918 1.37783 175.474 1.3711 176.08 1.39167C177.937 1.45264 179.689 1.45515 181.288 1.39912C182.321 1.38788 183.288 1.35012 184.175 1.2864C184.243 1.27161 184.286 1.25152 184.3 1.22752C184.313 1.20352 184.298 1.17616 184.256 1.14731C184.244 1.12908 184.214 1.10947 184.167 1.08984C184.119 1.0702 184.056 1.051 183.98 1.03356C183.905 1.01613 183.821 1.00087 183.732 0.988833C183.643 0.976795 183.552 0.968264 183.466 0.963837C182.346 0.877585 181.283 0.847538 180.363 0.876133C179.511 0.910347 178.593 0.920358 177.624 0.90601C176.696 0.902236 176.067 1.0138 174.922 0.928672C174.437 0.90064 174.01 0.909868 173.711 0.954812C173.111 1.02931 172.274 1.03345 171.348 0.966505C170.794 0.932625 170.264 0.918096 169.779 0.923471C168.603 0.947963 167.479 0.996965 166.389 1.04431C166.046 1.05527 165.678 1.05678 165.291 1.04881L159.835 0.956099C158.523 0.927658 157.215 0.893655 155.928 0.880251C154.876 0.851147 153.897 0.860262 153.025 0.907274C152.095 0.956684 151.081 0.976743 150.002 0.967073C148.327 0.994113 146.661 1.00446 144.837 1.00082C143.674 1.00306 142.483 0.995823 141.268 0.973549C140.653 0.944883 140.131 0.968228 139.803 1.03909C139.603 1.09743 139.132 1.0499 138.742 1.03636C136.659 0.905869 134.706 0.874949 133.019 0.945756C132.803 0.957294 132.567 0.961472 132.314 0.958215C130.689 0.955784 129.005 0.939968 127.445 0.939794C127.034 0.945295 126.648 0.96039 126.29 0.984888C126.328 1.02486 126.438 1.06818 126.595 1.10586C126.752 1.14355 126.946 1.17271 127.135 1.1873C128.611 1.29896 130.036 1.35795 131.35 1.36179C133.537 1.34756 135.828 1.37954 138.199 1.45739C140.039 1.53586 141.716 1.51934 143.107 1.40904C144.194 1.32675 145.608 1.35771 147.106 1.49662C147.747 1.56296 148.369 1.58949 148.887 1.57258C149.386 1.5504 149.959 1.55578 150.571 1.5884C151.863 1.65044 153.104 1.67922 154.273 1.67417C155.414 1.65133 156.48 1.58895 157.653 1.57002C158.825 1.55109 160.612 1.56194 162.058 1.52978C163.504 1.49762 164.934 1.49329 166.348 1.51677ZM62.3421 -1.73747C62.4746 -1.56545 62.9436 -1.45838 63.4481 -1.41251C65.1875 -1.20883 66.907 -1.12216 68.3181 -1.16704C69.0804 -1.22964 70.0965 -1.20554 71.1669 -1.09948C72.4133 -0.98923 73.5783 -0.970945 74.4565 -1.04785C74.6717 -1.06129 74.8364 -1.0897 74.9361 -1.13054C74.9555 -1.16393 74.991 -1.22512 74.9975 -1.23625C74.9052 -1.26447 74.792 -1.29062 74.6667 -1.31267C74.5414 -1.33473 74.4072 -1.35211 74.2747 -1.36347L68.5134 -1.56039L67.5093 -1.60372C65.6756 -1.71725 63.9282 -1.76248 62.3421 -1.73747ZM73.6746 0.985268C74.5738 1.26617 74.5769 1.26059 75.0376 1.32481C77.26 1.59153 79.4808 1.73552 81.436 1.73962C81.8705 1.73881 82.2393 1.7117 82.511 1.66056C82.6509 1.65363 82.7399 1.63161 82.7586 1.5993C82.7774 1.56699 82.7244 1.52701 82.6111 1.48809L81.8961 1.29019C80.5976 1.20452 79.3177 1.13645 78.0641 1.08638C76.6047 1.02726 75.3113 1.02498 73.7983 1.0009L73.6746 0.985268ZM147.575 43.1147C148.413 43.5013 148.416 43.4957 149.819 43.5954C150.797 43.6661 151.745 43.7076 152.636 43.7186C153.724 43.7308 154.84 43.7525 155.925 43.7702C156.19 43.7826 156.415 43.7723 156.555 43.7416C156.696 43.7108 156.742 43.6616 156.686 43.6036C156.543 43.5407 156.321 43.4799 156.054 43.4309C155.787 43.382 155.491 43.3479 155.216 43.3342L154.623 43.325C153.904 43.3057 153.157 43.277 152.463 43.2728C152.012 43.2888 151.49 43.2764 150.937 43.2365C150.384 43.1967 149.816 43.1305 149.277 43.0431L147.575 43.1147ZM78.1486 -1.23199C78.3724 -1.16503 78.6254 -1.10091 78.901 -1.04131C79.9681 -0.876143 81.0975 -0.782331 82.0678 -0.778273C82.5266 -0.768039 82.9462 -0.804573 83.4133 -0.751484C84.2511 -0.680544 85.063 -0.642756 85.8053 -0.640166C85.8053 -0.640166 86.0134 -0.655656 86.0817 -0.658964L86.2238 -0.90376C85.8725 -0.960468 85.506 -1.0068 85.1414 -1.04061C83.9178 -1.10574 82.7154 -1.15027 81.5162 -1.20036C80.3171 -1.25045 79.8989 -1.27346 79.1147 -1.29498C78.7649 -1.28315 78.4413 -1.26205 78.1486 -1.23199ZM51.6504 29.201L53.2517 29.702C53.7698 29.7456 54.2539 29.7534 54.6303 29.7245C55.0066 29.6955 55.2545 29.6313 55.3365 29.5416C55.4683 29.4996 55.4816 29.4374 55.3733 29.3681C55.265 29.2987 55.0437 29.2276 54.7558 29.1696C54.4786 29.1008 54.1623 29.0392 53.8263 28.9885C53.4903 28.9378 53.1418 28.8991 52.8024 28.8748L51.6504 29.201ZM64.9828 26.7063C63.9354 26.6213 62.9337 26.5866 62.0541 26.6047C61.5 26.6544 60.7491 26.6386 59.9554 26.5603C58.5121 26.4045 57.1207 26.3613 56.075 26.44C56.075 26.44 56.0361 26.5067 55.8589 26.5261C55.6817 26.5455 56.3846 26.5926 56.5393 26.6122C57.6734 26.66 58.8139 26.6967 59.7998 26.7139C60.4119 26.7131 61.0594 26.7289 61.731 26.761C62.6551 26.8104 63.5316 26.8264 64.326 26.8084C64.326 26.8084 64.6334 26.7935 64.9795 26.7118L64.9828 26.7063ZM176.833 0.609016C176.333 0.514654 175.791 0.437962 175.247 0.384698C174.703 0.331433 174.171 0.302981 173.692 0.301465C173.326 0.296542 173.029 0.321456 172.849 0.37227C172.669 0.423082 172.617 0.496898 172.7 0.582037C173.071 0.628958 173.565 0.691516 173.844 0.726707C174.808 0.723264 175.631 0.678016 176.833 0.609016ZM270.477 8.56089C270.075 8.48493 269.633 8.42685 269.201 8.39329C268.768 8.35973 268.363 8.35204 268.031 8.37109C267.86 8.37936 267.976 8.46568 267.947 8.51575C267.928 8.5271 267.928 8.54122 267.947 8.55663C267.967 8.57203 268.005 8.58817 268.057 8.60333C268.109 8.61849 268.174 8.63212 268.245 8.6428C268.315 8.65347 268.389 8.6608 268.458 8.66401C268.894 8.69674 269.305 8.70648 269.655 8.69237C270.005 8.67826 270.283 8.64074 270.464 8.58315L270.477 8.56089ZM276.751 9.64679C276.689 9.60197 276.557 9.55525 276.379 9.5152C276.201 9.47516 275.989 9.44445 275.782 9.42875C275.416 9.42664 275.084 9.43907 274.798 9.46557C274.487 9.48602 274.711 9.61579 275.131 9.69279C275.309 9.72369 275.499 9.7478 275.686 9.76319C275.873 9.77858 276.052 9.78483 276.209 9.78145C276.365 9.77806 276.495 9.76513 276.588 9.74369C276.681 9.72225 276.735 9.69288 276.744 9.65792L276.751 9.64679ZM94.4366 -0.755217C93.5005 -0.915375 92.78 -0.875082 91.9875 -0.939452C91.1949 -1.00382 90.9997 -1.01059 91.1058 -0.907592C91.212 -0.804589 91.7553 -0.825478 92.0955 -0.782467C92.5551 -0.725395 93.0175 -0.692625 93.431 -0.687812C93.8444 -0.682999 94.1926 -0.706336 94.4366 -0.755217ZM289.498 26.3435C289.002 26.3076 288.516 26.2822 288.048 26.2677C287.987 26.2826 287.948 26.3021 287.935 26.325C287.921 26.348 287.934 26.3739 287.971 26.4013C287.971 26.4013 288.288 26.4832 288.474 26.5067C289.157 26.5871 289.191 26.4719 289.498 26.3435ZM359.576 41.2652C359.911 41.3733 360.068 41.4468 360.336 41.4987C360.46 41.5167 360.587 41.5298 360.709 41.537C360.832 41.5442 360.945 41.5453 361.042 41.5402C361.16 41.5091 361.188 41.4614 361.12 41.4067C361.12 41.4067 360.778 41.3097 360.648 41.3052C360.276 41.2823 359.917 41.2689 359.576 41.2652ZM78.503 -1.67091C77.7917 -1.76084 77.1113 -1.84686 76.6189 -1.74191C77.7483 -1.62897 77.7484 -1.62896 78.503 -1.67091ZM90.0235 -0.644316C89.3053 -0.836646 88.8838 -0.854101 88.539 -0.832003C88.4658 -0.826437 88.4173 -0.81403 88.4009 -0.796669C88.3845 -0.779306 88.4012 -0.757933 88.4483 -0.735775C88.4955 -0.71362 88.5706 -0.69189 88.6622 -0.673872C88.7539 -0.655855 88.8571 -0.642528 88.9563 -0.635914C89.3309 -0.630377 89.6881 -0.633187 90.0235 -0.644316ZM126.99 -0.562985C127.006 -0.590804 127.025 -0.624184 126.84 -0.647644C126.791 -0.659554 126.734 -0.669796 126.674 -0.677346C126.615 -0.684896 126.554 -0.689482 126.5 -0.69065C126.5 -0.69065 126.48 -0.657268 126.467 -0.635013L126.99 -0.562985ZM152.66 45.6208L152.247 45.6462L152.432 45.6696L152.922 45.6838L152.66 45.6208ZM298.115 9.21272C297.961 9.19317 297.806 9.17362 297.784 9.21257C297.751 9.2186 297.731 9.22731 297.725 9.23795C297.718 9.2486 297.726 9.26087 297.748 9.27376C297.748 9.27376 297.965 9.30114 298.057 9.31287L298.115 9.21272ZM274.034 9.5242C273.932 9.52197 273.84 9.52458 273.764 9.53187L273.744 9.56525L274.054 9.60436L274.034 9.5242ZM64.166 17.4779C64.0466 17.4576 63.92 17.4416 63.7949 17.431L63.6402 17.4114C63.6402 17.4114 63.8064 17.4683 63.8992 17.48C63.9919 17.4917 64.0668 17.4773 64.166 17.4779Z" fill="#EF3D38"/>
</g>
</svg>
