<svg width="27" height="29" viewBox="0 0 27 29" fill="none" xmlns="http://www.w3.org/2000/svg">
<path d="M13.4999 4.83333H7.68738C5.92697 4.83333 4.49988 6.26043 4.49988 8.02084V20.9792C4.49988 22.7396 5.92697 24.1667 7.68738 24.1667H19.3124C21.0728 24.1667 22.4999 22.7396 22.4999 20.9792V14.5M20.7159 10.1672L21.9373 8.85521C22.816 7.91144 22.816 6.3813 21.9373 5.43754C21.0586 4.49376 19.634 4.49377 18.7553 5.43755L17.5339 6.74948M20.7159 10.1672L13.9251 17.4611C13.611 17.7985 13.2109 18.0284 12.7753 18.122L9.46588 18.8329L10.1278 15.2783C10.2149 14.8105 10.429 14.3808 10.7431 14.0434L17.5339 6.74948M20.7159 10.1672L17.5339 6.74948" stroke="#1F263E" stroke-width="3.1875" stroke-linecap="round" stroke-linejoin="round"/>
</svg>
